<svg id="Layer_1" data-name="Layer 1" xmlns="http://www.w3.org/2000/svg" viewBox="0 0 604.47 244.22"><defs><style>.cls-1{fill:none;stroke:#000;stroke-linecap:square;stroke-miterlimit:10;stroke-width:4px;}</style></defs><title>LOGO_B</title><line class="cls-1" x1="22.38" y1="30.92" x2="123.87" y2="30.92"/><line class="cls-1" x1="32.38" y1="62.38" x2="32.38" y2="129.87"/><line class="cls-1" x1="113.87" y1="62.38" x2="113.87" y2="129.87"/><line class="cls-1" x1="44.31" y1="62.39" x2="101.94" y2="62.39"/><line class="cls-1" x1="44.31" y1="93.85" x2="101.94" y2="93.85"/><line class="cls-1" x1="44.31" y1="125.32" x2="101.94" y2="125.32"/><line class="cls-1" x1="73.12" y1="39.81" x2="73.12" y2="48.45"/><line class="cls-1" x1="157.77" y1="37.3" x2="248.82" y2="37.3"/><line class="cls-1" x1="203.3" y1="48.52" x2="203.3" y2="114.1"/><line class="cls-1" x1="151.87" y1="125.32" x2="254.72" y2="125.32"/><line class="cls-1" x1="286.13" y1="32.28" x2="286.13" y2="129.87"/><line class="cls-1" x1="286.13" y1="32.28" x2="345.39" y2="32.28"/><line class="cls-1" x1="286.13" y1="125.32" x2="345.39" y2="125.32"/><line class="cls-1" x1="364.31" y1="32.28" x2="364.31" y2="129.87"/><line class="cls-1" x1="397.12" y1="40.76" x2="438.37" y2="40.76"/><line class="cls-1" x1="405.38" y1="58.89" x2="432.3" y2="58.89"/><line class="cls-1" x1="405.38" y1="76.78" x2="432.3" y2="76.78"/><rect class="cls-1" x="400.06" y="95.17" width="35.7" height="30.15"/><polyline class="cls-1" points="451.64 34.56 495.47 34.56 495.47 81.05 451.64 81.05 451.64 129.87 495.47 129.87"/><line class="cls-1" x1="577.88" y1="81.05" x2="529.06" y2="81.05"/><polyline class="cls-1" points="529.06 34.56 577.88 34.56 577.88 129.87 529.06 129.87"/><line class="cls-1" x1="364.31" y1="32.28" x2="364.31" y2="129.87"/><polyline class="cls-1" points="451.64 34.56 495.47 34.56 495.47 81.05 451.64 81.05 451.64 129.87 495.47 129.87"/><line class="cls-1" x1="577.88" y1="81.05" x2="529.06" y2="81.05"/><polyline class="cls-1" points="529.06 34.56 577.88 34.56 577.88 129.87 529.06 129.87"/><line class="cls-1" x1="416.95" y1="30.92" x2="416.95" y2="24.45"/><path d="M345.7,76.24l-7.25,3.42c-1,.51-1.33,2.5-1.33,2.5a5.81,5.81,0,0,0-3.67-.14c-1,.46-7.84,3.7-7.84,3.7l-20.09-9.48s8-3.55,8.72-3.93,3.35.47,3.35.47,0-2,1-2.44l5.49-2.48Z"/><line class="cls-1" x1="400.06" y1="127.53" x2="400.06" y2="129.87"/><line class="cls-1" x1="435.76" y1="127.53" x2="435.76" y2="129.87"/><path d="M68.31,201c-1,10.38-1.85,14.32-3.41,15.83a3.84,3.84,0,0,1-2.87,1,56.11,56.11,0,0,1-6-.15,5.24,5.24,0,0,0-.68-2.14c2.63.24,5.07.24,5.94.24s1.41,0,1.85-.44c1.12-1.12,2-4.63,2.87-13.4H36.35a50.14,50.14,0,0,1-9.5,6.82,12.42,12.42,0,0,0-1.32-1.95c9.6-5.16,16.71-13.2,21.58-22.36H28.85v-2.19H48.19a73.42,73.42,0,0,0,3.51-8.67l2.29.73c-1,2.68-2,5.36-3.26,7.94H61c-.39,2.87-1,6.28-1.56,8.72H65.1c-.39,2.83-.93,6.28-1.41,8.77h4.77Zm-39.95,15c3.12-2.34,4.87-6.48,5.75-10.38l2,.63c-1,4.09-2.63,8.43-5.94,11Zm11-33.91a30.07,30.07,0,0,0-4.14-7.36l1.95-.83A30,30,0,0,1,41.37,181Zm22.12,17.73c.39-1.85.83-4.34,1.12-6.63H44.3a60.54,60.54,0,0,1-5.65,6.63ZM42.3,206.33a32.34,32.34,0,0,1,1.46,8.87l-2.14.29a30.42,30.42,0,0,0-1.32-8.92Zm7.31-21.87A67.35,67.35,0,0,1,45.76,191h11.5a55.9,55.9,0,0,0,1.22-6.53Zm0,21.09a30.68,30.68,0,0,1,2.87,7.79l-2,.58A35,35,0,0,0,47.75,206Zm9.21,6.24a28.5,28.5,0,0,0-3.95-6.63l1.66-.68a25.25,25.25,0,0,1,4,6.43Z"/><path d="M112.4,174.47a75.47,75.47,0,0,1-5.26,10.72v32.54H104.9v-29A47.8,47.8,0,0,1,99,196a9.32,9.32,0,0,0-1.41-2.09c5-4.87,9.74-12.42,12.67-20.07Zm16.81,11.16v29c0,1.61-.39,2.34-1.46,2.78s-3,.44-6,.44a12.69,12.69,0,0,0-.83-2.39c2.44.1,4.58,0,5.21,0s.83-.19.83-.83v-29h-8.53a42.91,42.91,0,0,1-4.77,9c-.39-.29-1.36-1.07-1.95-1.41,3.6-4.73,6.28-11.94,7.89-19.29l2.29.49a77,77,0,0,1-2.63,9h21.53l.49-.1,1.51.49c-.63,3.31-1.51,7.36-2.14,9.74l-2-.39c.44-1.9,1-4.82,1.41-7.5Zm-7.84,8.72c-1.66,6.53-4.34,12.67-7.4,16.81-.44-.34-1.46-1-2-1.31,3.17-3.9,5.65-9.89,7.16-15.93Zm14.52-.73a63.18,63.18,0,0,1,6.53,16.61l-2.24.73a65.28,65.28,0,0,0-6.33-16.66Z"/><path d="M190.1,196.78l-7.79,2.48v14.81c0,1.61-.49,2.29-1.51,2.68s-2.92.44-6.24.44a12,12,0,0,0-.78-2.19c2.48,0,4.68,0,5.26,0s1-.24,1-.93V199.94c-2.73.88-5.31,1.7-7.5,2.34l-.83-2.34c2.34-.63,5.16-1.46,8.33-2.39v-11.5h-7.89v-2.24H180V173.64h2.29v10.18h7.45v2.24h-7.45v10.86l7.5-2.34Zm26-16.52h-9.21v33.52c0,2-.54,2.87-2,3.31s-4.43.44-9.06.44a13.78,13.78,0,0,0-1-2.53c3.9.15,7.36.1,8.43,0s1.27-.34,1.27-1.27V180.26H189.71V178h26.4Z"/><path d="M249.58,191.66v26.16h-2.29V175.88h17.1v15.78Zm0-13.84v4.82h12.57v-4.82Zm12.57,11.89v-5.16H249.58v5.16ZM273,205.5v11.35h-2.19V205.5h-8.18a15.73,15.73,0,0,1-6.72,11.89,9.67,9.67,0,0,0-1.66-1.46,13.27,13.27,0,0,0,6.24-10.43h-6.77v-2.14h6.82v-6.24H254.7v-2h24.46v2H273v6.24h7.31v2.14Zm-2.19-2.14v-6.24h-8.14v6.24Zm16.08,10.86c0,1.8-.44,2.68-1.71,3.07s-3.65.44-7.36.44a8.33,8.33,0,0,0-.78-2.44c3,0,5.65,0,6.48,0s1.07-.29,1.07-1V191.71H269.36V175.88H286.9Zm-15.3-36.39v4.82h13v-4.82Zm13,11.89v-5.16h-13v5.16Z"/><path d="M331.08,178.07v39.75h-2V207.59l-11,2.68-.54-2.09c1-.19,2.19-.49,3.41-.73V178.07h-3v-2.19h15.88v2.19Zm-2,0H322.9V186h6.19Zm0,10H322.9v8h6.19ZM322.9,207c1.9-.44,4-.93,6.19-1.46v-7.31H322.9ZM361,195a48.62,48.62,0,0,1-6.28,12.28c1,4.82,2.24,7.75,3.9,7.84.83,0,1.61-3,1.95-7.89a6.83,6.83,0,0,0,1.71,1.12c-.83,7.26-2.09,9.4-3.65,9.35-2.53,0-4.34-3.12-5.55-8.18a40.74,40.74,0,0,1-7.94,7.7,7.61,7.61,0,0,0-1.46-1.27,38.75,38.75,0,0,0,8.87-9,140.55,140.55,0,0,1-1.75-16.37H333v-2.1H337a43.52,43.52,0,0,0-1.27-6.28l1.85-.29a39.63,39.63,0,0,1,1.51,6.58h4a56.91,56.91,0,0,0,1.71-6.58l2.14.49c-.68,2-1.27,4.34-1.9,6.09h5.7c-.24-4.68-.44-9.65-.54-14.86h2.14c0,5.21.19,10.23.44,14.86H362v2.1h-9.11c.34,5.31.78,10,1.36,13.88A43.1,43.1,0,0,0,359,194Zm-20.41-15.78a48.46,48.46,0,0,0-2.09-4.63l2-.44a46.94,46.94,0,0,1,2.34,5.07h5.65v2H333.72v-2Zm-3.51,31.47v3.41h-2V194h12.37v18h-2v-1.41Zm0-14.71v5.36h8.33v-5.36Zm8.33,12.81v-5.55h-8.33v5.55Zm13.06-23.19a31.85,31.85,0,0,0-4-8l1.9-.78a32.21,32.21,0,0,1,4.14,8Z"/><path d="M406.16,201.26c-5,2.48-10.38,5.12-14.37,7l-1-2.29c1.9-.78,4.34-1.9,7-3.17V186.55h-6.14v-2.24h6.14V173.88H400v10.43h5.75v2.24H400V201.8l5.6-2.68Zm8.53-5.31a23.36,23.36,0,0,1-2.53,4h21.73s0,.73-.1,1.17c-.78,10.38-1.56,14.13-2.87,15.49a3.31,3.31,0,0,1-2.53,1c-1,0-2.92,0-4.77,0a4.86,4.86,0,0,0-.58-2.09c2,.19,3.85.24,4.53.24s1.17,0,1.51-.49c1-1,1.75-4.43,2.44-13.2h-5c-1.9,6.14-5.75,12.67-10,15.88a5.68,5.68,0,0,0-1.8-1.36c4.09-2.87,7.89-8.77,9.84-14.52h-5.8a36.31,36.31,0,0,1-12.08,13.84,10.19,10.19,0,0,0-1.66-1.56c4.34-2.44,9-7.45,11.59-12.28h-6a35,35,0,0,1-6.87,6.14,12.94,12.94,0,0,0-1.66-1.56,29.6,29.6,0,0,0,10.28-10.67h-7.6v-2.14h30.54v2.14Zm17-5.36H409.81V175.25h21.87Zm-2.24-13.45H412v4.73h17.49Zm0,6.67H412v4.82h17.49Z"/><path d="M484.64,204.28V188.35H474.45V212h32v2.29H472V188.35h-7.36v-2.24H472V174.9h2.48v11.2h10.18V173.78h2.29v12.33h10.86V174.37h2.34v11.74h7.79v2.24h-7.79v15.93Zm2.29-15.93V202h10.86V188.35Z"/><path d="M565,194c3.8,4.24,10.23,7.89,16.37,9.5a12.63,12.63,0,0,0-1.61,2c-6.58-2-13.59-6.33-17.44-11.5h-5.65c-3.95,5.12-11.16,9.5-17.54,11.74a6.88,6.88,0,0,0-1.61-1.95A38.39,38.39,0,0,0,553.86,194H542.95V175.2h32.59V194Zm-14.37,7H553v2.78c0,4.68-1,10.38-10.33,14.32a6.37,6.37,0,0,0-1.61-1.8c8.77-3.61,9.55-8.67,9.55-12.57Zm-5.31-17.44H558v-6.24H545.29Zm0,8.38H558v-6.38H545.29Zm27.87-14.61H560.34v6.24h12.81Zm0,8.23H560.34v6.38h12.81Zm-6.72,15.39h2.34v16.81h-2.34Z"/></svg>